<svg width="101" height="101" viewBox="0 0 101 101" fill="none" xmlns="http://www.w3.org/2000/svg">
<rect x="1" y="0.838135" width="99" height="99" rx="49.5" fill="white"/>
<rect x="1" y="0.838135" width="99" height="99" rx="49.5" fill="#989897" fill-opacity="0.2"/>
<rect x="1" y="0.838135" width="99" height="99" rx="49.5" stroke="#989897"/>
<path fill-rule="evenodd" clip-rule="evenodd" d="M6 40.3439V40.6879L6.52592 40.7259C7.09216 40.7668 7.44892 40.9603 7.63863 41.3293C7.72128 41.49 7.747 42.967 7.74787 47.6158C7.74892 53.2271 7.73729 53.7155 7.59603 53.9981C7.40519 54.38 6.96192 54.6097 6.41545 54.6099L6 54.6101V55.0035V55.3969H12.2911C16.2092 55.3969 18.8402 55.3621 19.2663 55.3048C22.3407 54.8906 24.395 53.4173 24.7212 51.3924C24.9559 49.9357 24.2799 48.5812 22.9977 47.9393C22.2095 47.5448 20.6743 47.1786 19.8078 47.1786C19.6217 47.1786 19.4694 47.1393 19.4694 47.0912C19.4694 47.0431 19.543 47.0038 19.6331 47.0038C19.9567 47.0038 21.4685 46.5777 21.9457 46.352C22.5912 46.0468 23.2724 45.4225 23.5619 44.8712C23.7679 44.4787 23.7964 44.3241 23.7975 43.594C23.799 42.6338 23.6827 42.3182 23.1196 41.7553C22.4376 41.0735 21.2151 40.5533 19.5021 40.2159C18.8166 40.081 17.9825 40.0595 12.363 40.0316L6 40V40.3439ZM59.238 40.3989C58.9118 40.9151 58.1531 41.6776 57.5829 42.0624C56.7675 42.6125 55.8563 42.8996 53.9519 43.2065C53.681 43.2501 53.6676 43.2705 53.6676 43.6383V44.0244L54.4329 44.0496L55.1983 44.0749L55.2433 48.7086C55.2841 52.9038 55.3034 53.3812 55.4467 53.7528C55.7639 54.5752 56.6007 55.2589 57.6341 55.5398C58.7325 55.8384 60.6872 55.7724 62.0672 55.3902C62.6949 55.2163 64.2165 54.5918 64.3587 54.4497C64.4086 54.3998 64.3677 54.2271 64.2523 54.0012C64.1085 53.7193 64.0305 53.6483 63.9172 53.6963C63.3768 53.9248 62.7128 54.0052 62.1503 53.9104C61.4644 53.7948 61.0788 53.5829 60.8392 53.1901C60.6718 52.9157 60.6653 52.7414 60.6651 48.4682L60.6647 44.0312H62.1079H63.551V43.5503V43.0695H62.1079H60.6647V41.5394V40.0094L60.0743 40.0096L59.484 40.0098L59.238 40.3989ZM13.8717 43.9872V46.9374L14.9525 46.9015C15.9762 46.8674 16.0651 46.8495 16.6362 46.563C17.7036 46.0276 18.1298 45.1796 18.0485 43.7535C17.9449 41.9381 17.0354 41.1655 14.8994 41.0788L13.8717 41.037V43.9872ZM31.4331 42.3308C29.5759 42.6198 28.1463 43.3147 26.9457 44.512C25.7582 45.6962 25.2697 46.7847 25.1801 48.4463C24.977 52.213 27.3471 54.9651 31.3644 55.6271C32.4562 55.807 34.2631 55.7441 35.2823 55.4906C37.8727 54.8466 39.9196 53.0851 40.6743 50.8506C41.0281 49.8034 41.0882 48.3247 40.8204 47.2593C40.3722 45.4765 39.2941 44.144 37.5773 43.2511C35.828 42.3414 33.5535 42.0007 31.4331 42.3308ZM69.6014 42.2829C68.0269 42.5049 66.3727 43.1747 65.3461 44.0057C64.3301 44.8283 63.6003 45.938 63.2775 47.1512C63.0255 48.0984 63.0269 49.6558 63.2805 50.632C64.0744 53.6868 66.7406 55.5764 70.4606 55.7208C74.5404 55.879 77.8414 53.7278 78.7387 50.326C78.9366 49.5761 78.9368 48.0391 78.7392 47.266C78.1191 44.8409 76.1347 43.0947 73.2651 42.4491C72.3988 42.2542 70.436 42.1651 69.6014 42.2829ZM46.9859 42.3733C44.9906 42.5989 43.4697 43.2596 42.5004 44.3221C41.824 45.0634 41.6448 45.5873 41.643 46.8289C41.6415 47.7804 41.6564 47.8661 41.9215 48.4254C42.4924 49.6302 43.4213 50.2329 46.1127 51.1452C48.683 52.0163 49.0752 52.2041 49.3848 52.7115C49.7782 53.3566 49.5015 54.0468 48.7018 54.4154C48.2646 54.6169 48.0627 54.6503 47.1079 54.6795C44.4622 54.7604 42.9674 53.9189 42.285 51.9644L42.0793 51.3752H41.7073H41.3353V53.024V54.6727L42.0343 54.9489C44.2918 55.8406 47.8861 56.0119 50.4893 55.3518C52.502 54.8415 53.6789 53.7018 53.934 52.0161C54.1139 50.8271 53.7907 49.5465 53.0974 48.7007C52.4027 47.8532 51.4036 47.3247 48.8794 46.4694C46.3872 45.6248 46.0531 45.4096 46.0425 44.6414C46.0291 43.671 47.2419 43.182 49.1166 43.4019C50.8642 43.6068 51.7025 44.1871 52.1927 45.5308L52.3791 46.042H52.7632H53.1472L53.1232 44.6244L53.0991 43.2067L52.2109 42.9272C50.6236 42.4277 48.4984 42.2024 46.9859 42.3733ZM88.5751 42.5082C87.6513 42.7566 86.6518 43.3018 85.7592 44.0444C85.4789 44.2775 85.2283 44.4683 85.2021 44.4683C85.1759 44.4683 85.1545 44.1536 85.1545 43.7689V43.0695H81.8309H78.5073V43.4629V43.8563L78.8353 43.8565C79.2999 43.8567 79.7481 44.1075 79.9284 44.4683C80.068 44.7476 80.0812 45.1567 80.0795 49.1458C80.0779 53.2226 80.0668 53.5414 79.9147 53.8762C79.7137 54.3187 79.1786 54.6101 78.5671 54.6101H78.1574V55.0035V55.3969H82.4869H86.8163V55.0146V54.6323L86.3781 54.5902C85.9064 54.5449 85.6651 54.3831 85.4299 53.9545C85.3031 53.7238 85.2825 53.2115 85.2589 49.7224L85.2321 45.7527L85.5985 45.3796C86.5329 44.4277 88.3361 44.1812 88.9581 44.9202C89.0752 45.0593 89.2118 45.3195 89.2615 45.4983C89.3173 45.6996 89.352 47.3138 89.3522 49.7342C89.3527 53.0927 89.3333 53.6935 89.2148 53.9896C89.057 54.3839 88.68 54.6101 88.1807 54.6101C87.8659 54.6101 87.8659 54.6101 87.8659 55.0035V55.3969H91.9329H96V55.0146V54.6323L95.5545 54.5895C95.2038 54.5559 95.0504 54.4881 94.833 54.2708L94.5569 53.9949L94.5098 49.778C94.47 46.2176 94.4408 45.4967 94.3218 45.1468C93.7259 43.3943 92.041 42.3644 89.7901 42.3773C89.3812 42.3796 88.8345 42.4386 88.5751 42.5082ZM32.4476 43.3241C31.7851 43.6249 31.3183 44.4757 31.0047 45.9546C30.839 46.736 30.8089 47.1588 30.8029 48.796C30.7953 50.8898 30.8975 51.8533 31.2449 52.9628C31.6224 54.1691 32.2837 54.8675 33.0509 54.8709C34.3143 54.8764 35.1245 53.4049 35.3848 50.632C35.6676 47.6192 35.1898 44.7986 34.2241 43.7801C33.9091 43.4478 33.3539 43.1607 33.0262 43.1607C32.906 43.1607 32.6456 43.2343 32.4476 43.3241ZM70.4606 43.2917C69.2464 43.8356 68.685 45.636 68.6899 48.9709C68.6945 52.2261 69.2006 54.0854 70.242 54.6723C71.1304 55.173 72.0541 54.7213 72.6136 53.5126C73.0784 52.5084 73.2651 51.4202 73.3177 49.408C73.3678 47.4978 73.2529 46.3625 72.895 45.2282C72.4023 43.667 71.4011 42.8706 70.4606 43.2917ZM13.8717 51.2003V54.4352L14.2872 54.4345C15.0701 54.4333 16.1474 54.2678 16.562 54.0851C17.0993 53.8482 17.6645 53.2904 17.884 52.7804C18.4554 51.4526 18.2803 49.5061 17.5235 48.7742C16.9663 48.2352 15.9953 47.9674 14.5933 47.9662L13.8717 47.9655V51.2003ZM79.3258 57.7548C78.9127 57.8513 78.4846 58.1477 78.289 58.4728C78.0195 58.9206 78.0416 59.8946 78.3309 60.3165C78.7737 60.9626 79.7019 61.1965 80.3222 60.8185C80.6056 60.6457 80.6064 60.6457 80.6064 60.8188C80.6064 60.9589 80.6655 60.9924 80.9125 60.9924H81.2187V60.1618V59.3312H80.4752H79.7318V59.5935C79.7318 59.8461 79.7464 59.8558 80.1254 59.8558C80.5615 59.8558 80.6111 59.938 80.3322 60.1977C80.0668 60.445 79.714 60.4993 79.3531 60.3485C78.7765 60.1077 78.5836 59.2841 78.9694 58.7103C79.3551 58.1368 80.1521 58.1781 80.4315 58.7863C80.5473 59.0383 80.5986 59.0691 80.8688 59.0486C81.1406 59.0278 81.1714 59.0007 81.144 58.8066C81.0359 58.0455 80.1863 57.554 79.3258 57.7548ZM70.8105 59.3749V60.9924H71.1166H71.4227L71.4276 59.7902L71.4324 58.5881L71.8047 59.7684L72.1771 60.9487H72.467H72.7569L73.1175 59.7684L73.4781 58.5881L73.5025 59.7902L73.5268 60.9924H73.8304H74.1341V59.3706V57.7488L73.6393 57.775L73.1446 57.8012L72.838 58.8797C72.6688 59.4747 72.5051 59.9059 72.4728 59.8415C72.4406 59.7772 72.2834 59.2821 72.1234 58.7411L71.8325 57.7575H71.3215H70.8105V59.3749ZM75.8013 57.9979C75.5659 58.5117 74.6589 60.8249 74.6589 60.9114C74.6589 60.9634 74.7972 60.9912 74.9793 60.9758C75.2683 60.9513 75.3129 60.9122 75.4347 60.5771L75.5697 60.2055H76.2394H76.9092L77.0595 60.5989C77.2029 60.9744 77.2258 60.9924 77.5588 60.9924C77.8007 60.9924 77.8992 60.9577 77.8796 60.8792C77.864 60.817 77.5758 60.0894 77.2391 59.2624L76.6268 57.7587L76.2692 57.7581C75.9637 57.7576 75.8954 57.7926 75.8013 57.9979ZM82.2832 59.3094C81.937 60.1628 81.6543 60.8908 81.6549 60.9268C81.6555 60.9628 81.7951 60.9924 81.9652 60.9924C82.2484 60.9924 82.2886 60.9592 82.4431 60.5989L82.6119 60.2055H83.256H83.9001L84.0681 60.5771C84.2174 60.9073 84.2726 60.9517 84.5641 60.9758C84.7446 60.9907 84.8921 60.965 84.8921 60.9188C84.8921 60.8724 84.6115 60.1422 84.2686 59.2961L83.6451 57.7575H83.2788H82.9126L82.2832 59.3094ZM85.2583 58.0416L85.2857 58.3258L86.0989 58.3695L86.912 58.4132L86.077 59.4375C85.4306 60.2305 85.242 60.5217 85.242 60.7271V60.9924H86.5539H87.8659V60.6864V60.3804H87.035C86.578 60.3804 86.2041 60.3594 86.2041 60.3337C86.2041 60.308 86.578 59.8281 87.035 59.2671C87.6439 58.5197 87.8659 58.1818 87.8659 58.0024V57.7575H86.5484H85.2309L85.2583 58.0416ZM88.4781 59.3749V60.9924H88.7843H89.0904V59.3749V57.7575H88.7843H88.4781V59.3749ZM89.8099 59.3531L89.8338 60.9487H90.1399H90.4461L90.4898 59.921L90.5335 58.8934L91.2797 59.921C91.9431 60.8346 92.0547 60.9487 92.2855 60.9487H92.5452L92.5691 59.3531L92.5929 57.7575H92.2875H91.9822L91.9576 58.7848L91.9329 59.8121L91.2087 58.7848C90.4902 57.7659 90.4816 57.7575 90.1352 57.7575H89.7862L89.8099 59.3531ZM93.2886 59.3749V60.9924H94.4694H95.6501V60.6864V60.3804H94.7755H93.9009V59.9869V59.5935H94.5569H95.2128V59.3312V59.0689H94.5569H93.9009V58.7224V58.3758L94.7536 58.3508L95.6064 58.3258L95.6338 58.0416L95.6613 57.7575H94.4749H93.2886V59.3749ZM75.9918 59.1564L75.803 59.6809H76.2441C76.4866 59.6809 76.672 59.6503 76.6559 59.6129C76.6399 59.5755 76.5502 59.3394 76.4564 59.0883C76.3628 58.8372 76.2625 58.6318 76.2334 58.6318C76.2044 58.6318 76.0957 58.8678 75.9918 59.1564ZM83.1085 58.9327C82.8049 59.6511 82.8114 59.6809 83.2705 59.6809C83.7279 59.6809 83.7266 59.6885 83.4044 58.9381L83.2541 58.5881L83.1085 58.9327Z" fill="#989897"/>
</svg>
