<svg width="152" height="31" viewBox="0 0 152 31" fill="none" xmlns="http://www.w3.org/2000/svg">
<g clip-path="url(#clip0_1_183)">
<mask id="mask0_1_183" style="mask-type:luminance" maskUnits="userSpaceOnUse" x="0" y="0" width="31" height="31">
<path d="M30.6705 0.754639H0.457703V30.9674H30.6705V0.754639Z" fill="white"/>
</mask>
<g mask="url(#mask0_1_183)">
<path d="M15.189 25.4467L8.11062 29.1672C7.93227 29.2607 7.73129 29.3025 7.53042 29.2879C7.32957 29.2732 7.13684 29.2026 6.97403 29.0839C6.81123 28.9654 6.68485 28.8036 6.60921 28.6169C6.53357 28.4302 6.51169 28.2261 6.54602 28.0278L7.89913 20.1508C7.9288 19.9782 7.91602 19.801 7.86188 19.6344C7.80773 19.4678 7.71386 19.317 7.58837 19.1948L1.86088 13.6141C1.71661 13.4736 1.61454 13.2955 1.56622 13.1C1.5179 12.9045 1.52525 12.6993 1.58746 12.5078C1.64965 12.3163 1.76422 12.1459 1.91818 12.0161C2.07214 11.8863 2.25936 11.8022 2.45866 11.7732L10.3701 10.623C10.5433 10.5981 10.7079 10.5315 10.8496 10.4289C10.9914 10.3262 11.106 10.1907 11.1837 10.0339L14.7229 2.86477C14.8122 2.68465 14.95 2.53304 15.1208 2.42705C15.2916 2.32106 15.4887 2.26489 15.6897 2.26489C15.8907 2.26489 16.0878 2.32106 16.2586 2.42705C16.4294 2.53304 16.5672 2.68465 16.6565 2.86477L20.1979 10.0317C20.2754 10.1882 20.3897 10.3236 20.531 10.4263C20.6723 10.5289 20.8365 10.5956 21.0093 10.6208L28.9208 11.7711C29.12 11.8 29.3073 11.8841 29.4612 12.014C29.6153 12.1438 29.7297 12.3141 29.792 12.5056C29.8542 12.6972 29.8615 12.9023 29.8132 13.0978C29.7648 13.2933 29.6628 13.4714 29.5186 13.6119L23.7933 19.1926C23.6681 19.3146 23.5745 19.4651 23.5203 19.6313C23.4661 19.7974 23.4532 19.9742 23.4825 20.1465L24.8356 28.0256C24.8702 28.2244 24.8484 28.4287 24.7726 28.6158C24.6971 28.8027 24.5704 28.9648 24.4073 29.0835C24.2441 29.2022 24.051 29.2727 23.8496 29.287C23.6485 29.3014 23.4471 29.2591 23.2689 29.1651L16.1925 25.4446C16.0378 25.3632 15.8656 25.3207 15.6908 25.3207C15.516 25.3207 15.3438 25.3632 15.189 25.4446V25.4467Z" fill="#111111" fill-opacity="0.2"/>
</g>
</g>
<g clip-path="url(#clip1_1_183)">
<mask id="mask1_1_183" style="mask-type:luminance" maskUnits="userSpaceOnUse" x="0" y="0" width="31" height="31">
<path d="M30.6705 0.754639H0.457703V30.9674H30.6705V0.754639Z" fill="white"/>
</mask>
<g mask="url(#mask1_1_183)">
<path d="M15.189 25.4467L8.11062 29.1672C7.93227 29.2607 7.73129 29.3025 7.53042 29.2879C7.32957 29.2732 7.13684 29.2026 6.97403 29.0839C6.81123 28.9654 6.68485 28.8036 6.60921 28.6169C6.53357 28.4302 6.51169 28.2261 6.54602 28.0278L7.89913 20.1508C7.9288 19.9782 7.91602 19.801 7.86188 19.6344C7.80773 19.4678 7.71386 19.317 7.58837 19.1948L1.86088 13.6141C1.71661 13.4736 1.61454 13.2955 1.56622 13.1C1.5179 12.9045 1.52525 12.6993 1.58746 12.5078C1.64965 12.3163 1.76422 12.1459 1.91818 12.0161C2.07214 11.8863 2.25936 11.8022 2.45866 11.7732L10.3701 10.623C10.5433 10.5981 10.7079 10.5315 10.8496 10.4289C10.9914 10.3262 11.106 10.1907 11.1837 10.0339L14.7229 2.86477C14.8122 2.68465 14.95 2.53304 15.1208 2.42705C15.2916 2.32106 15.4887 2.26489 15.6897 2.26489C15.8907 2.26489 16.0878 2.32106 16.2586 2.42705C16.4294 2.53304 16.5672 2.68465 16.6565 2.86477L20.1979 10.0317C20.2754 10.1882 20.3897 10.3236 20.531 10.4263C20.6723 10.5289 20.8365 10.5956 21.0093 10.6208L28.9208 11.7711C29.12 11.8 29.3073 11.8841 29.4612 12.014C29.6153 12.1438 29.7297 12.3141 29.792 12.5056C29.8542 12.6972 29.8615 12.9023 29.8132 13.0978C29.7648 13.2933 29.6628 13.4714 29.5186 13.6119L23.7933 19.1926C23.6681 19.3146 23.5745 19.4651 23.5203 19.6313C23.4661 19.7974 23.4532 19.9742 23.4825 20.1465L24.8356 28.0256C24.8702 28.2244 24.8484 28.4287 24.7726 28.6158C24.6971 28.8027 24.5704 28.9648 24.4073 29.0835C24.2441 29.2022 24.051 29.2727 23.8496 29.287C23.6485 29.3014 23.4471 29.2591 23.2689 29.1651L16.1925 25.4446C16.0378 25.3632 15.8656 25.3207 15.6908 25.3207C15.516 25.3207 15.3438 25.3632 15.189 25.4446V25.4467Z" fill="#FCBF02"/>
</g>
</g>
<g clip-path="url(#clip2_1_183)">
<mask id="mask2_1_183" style="mask-type:luminance" maskUnits="userSpaceOnUse" x="30" y="0" width="31" height="31">
<path d="M60.8833 0.754639H30.6705V30.9674H60.8833V0.754639Z" fill="white"/>
</mask>
<g mask="url(#mask2_1_183)">
<path d="M45.4017 25.4467L38.3233 29.1672C38.145 29.2607 37.944 29.3025 37.7431 29.2879C37.5422 29.2732 37.3495 29.2026 37.1867 29.0839C37.0239 28.9654 36.8975 28.8036 36.8219 28.6169C36.7462 28.4302 36.7244 28.2261 36.7587 28.0278L38.1118 20.1508C38.1415 19.9782 38.1287 19.801 38.0746 19.6344C38.0204 19.4678 37.9265 19.317 37.801 19.1948L32.0736 13.6141C31.9293 13.4736 31.8272 13.2955 31.7789 13.1C31.7306 12.9045 31.7379 12.6993 31.8001 12.5078C31.8623 12.3163 31.9769 12.1459 32.1309 12.0161C32.2848 11.8863 32.472 11.8022 32.6713 11.7732L40.5828 10.623C40.756 10.5981 40.9206 10.5315 41.0623 10.4289C41.204 10.3262 41.3187 10.1907 41.3964 10.0339L44.9356 2.86477C45.0248 2.68465 45.1627 2.53304 45.3335 2.42705C45.5043 2.32106 45.7013 2.26489 45.9024 2.26489C46.1034 2.26489 46.3005 2.32106 46.4713 2.42705C46.6421 2.53304 46.7799 2.68465 46.8692 2.86477L50.4106 10.0317C50.488 10.1882 50.6024 10.3236 50.7437 10.4263C50.885 10.5289 51.0492 10.5956 51.222 10.6208L59.1335 11.7711C59.3327 11.8 59.52 11.8841 59.6739 12.014C59.828 12.1438 59.9423 12.3141 60.0047 12.5056C60.0669 12.6972 60.0742 12.9023 60.0259 13.0978C59.9775 13.2933 59.8754 13.4714 59.7313 13.6119L54.006 19.1926C53.8808 19.3146 53.7871 19.4651 53.733 19.6313C53.6788 19.7974 53.6659 19.9742 53.6952 20.1465L55.0483 28.0256C55.0828 28.2244 55.061 28.4287 54.9853 28.6158C54.9098 28.8027 54.7831 28.9648 54.6199 29.0835C54.4568 29.2022 54.2636 29.2727 54.0623 29.287C53.8612 29.3014 53.6598 29.2591 53.4816 29.1651L46.4052 25.4446C46.2505 25.3632 46.0783 25.3207 45.9035 25.3207C45.7287 25.3207 45.5565 25.3632 45.4017 25.4446V25.4467Z" fill="#111111" fill-opacity="0.2"/>
</g>
</g>
<g clip-path="url(#clip3_1_183)">
<mask id="mask3_1_183" style="mask-type:luminance" maskUnits="userSpaceOnUse" x="30" y="0" width="31" height="31">
<path d="M60.8833 0.754639H30.6705V30.9674H60.8833V0.754639Z" fill="white"/>
</mask>
<g mask="url(#mask3_1_183)">
<path d="M45.4017 25.4467L38.3233 29.1672C38.145 29.2607 37.944 29.3025 37.7431 29.2879C37.5422 29.2732 37.3495 29.2026 37.1867 29.0839C37.0239 28.9654 36.8975 28.8036 36.8219 28.6169C36.7462 28.4302 36.7244 28.2261 36.7587 28.0278L38.1118 20.1508C38.1415 19.9782 38.1287 19.801 38.0746 19.6344C38.0204 19.4678 37.9265 19.317 37.801 19.1948L32.0736 13.6141C31.9293 13.4736 31.8272 13.2955 31.7789 13.1C31.7306 12.9045 31.7379 12.6993 31.8001 12.5078C31.8623 12.3163 31.9769 12.1459 32.1309 12.0161C32.2848 11.8863 32.472 11.8022 32.6713 11.7732L40.5828 10.623C40.756 10.5981 40.9206 10.5315 41.0623 10.4289C41.204 10.3262 41.3187 10.1907 41.3964 10.0339L44.9356 2.86477C45.0248 2.68465 45.1627 2.53304 45.3335 2.42705C45.5043 2.32106 45.7013 2.26489 45.9024 2.26489C46.1034 2.26489 46.3005 2.32106 46.4713 2.42705C46.6421 2.53304 46.7799 2.68465 46.8692 2.86477L50.4106 10.0317C50.488 10.1882 50.6024 10.3236 50.7437 10.4263C50.885 10.5289 51.0492 10.5956 51.222 10.6208L59.1335 11.7711C59.3327 11.8 59.52 11.8841 59.6739 12.014C59.828 12.1438 59.9423 12.3141 60.0047 12.5056C60.0669 12.6972 60.0742 12.9023 60.0259 13.0978C59.9775 13.2933 59.8754 13.4714 59.7313 13.6119L54.006 19.1926C53.8808 19.3146 53.7871 19.4651 53.733 19.6313C53.6788 19.7974 53.6659 19.9742 53.6952 20.1465L55.0483 28.0256C55.0828 28.2244 55.061 28.4287 54.9853 28.6158C54.9098 28.8027 54.7831 28.9648 54.6199 29.0835C54.4568 29.2022 54.2636 29.2727 54.0623 29.287C53.8612 29.3014 53.6598 29.2591 53.4816 29.1651L46.4052 25.4446C46.2505 25.3632 46.0783 25.3207 45.9035 25.3207C45.7287 25.3207 45.5565 25.3632 45.4017 25.4446V25.4467Z" fill="#FCBF02"/>
</g>
</g>
<g clip-path="url(#clip4_1_183)">
<mask id="mask4_1_183" style="mask-type:luminance" maskUnits="userSpaceOnUse" x="60" y="0" width="32" height="31">
<path d="M91.0962 0.754639H60.8834V30.9674H91.0962V0.754639Z" fill="white"/>
</mask>
<g mask="url(#mask4_1_183)">
<path d="M75.6146 25.4467L68.5362 29.1672C68.3578 29.2607 68.1568 29.3025 67.956 29.2879C67.7551 29.2732 67.5624 29.2026 67.3996 29.0839C67.2368 28.9654 67.1104 28.8036 67.0347 28.6169C66.9591 28.4302 66.9372 28.2261 66.9716 28.0278L68.3247 20.1508C68.3543 19.9782 68.3416 19.801 68.2874 19.6344C68.2333 19.4678 68.1394 19.317 68.0139 19.1948L62.2864 13.6141C62.1421 13.4736 62.0401 13.2955 61.9918 13.1C61.9434 12.9045 61.9508 12.6993 62.013 12.5078C62.0752 12.3163 62.1898 12.1459 62.3437 12.0161C62.4977 11.8863 62.6849 11.8022 62.8842 11.7732L70.7956 10.623C70.9689 10.5981 71.1334 10.5315 71.2752 10.4289C71.4169 10.3262 71.5316 10.1907 71.6092 10.0339L75.1484 2.86477C75.2377 2.68465 75.3755 2.53304 75.5463 2.42705C75.7172 2.32106 75.9142 2.26489 76.1153 2.26489C76.3163 2.26489 76.5133 2.32106 76.6841 2.42705C76.855 2.53304 76.9928 2.68465 77.0821 2.86477L80.6234 10.0317C80.7009 10.1882 80.8152 10.3236 80.9566 10.4263C81.0979 10.5289 81.262 10.5956 81.4349 10.6208L89.3464 11.7711C89.5456 11.8 89.7329 11.8841 89.8867 12.014C90.0408 12.1438 90.1552 12.3141 90.2176 12.5056C90.2797 12.6972 90.2871 12.9023 90.2387 13.0978C90.1904 13.2933 90.0883 13.4714 89.9442 13.6119L84.2188 19.1926C84.0937 19.3146 84 19.4651 83.9458 19.6313C83.8917 19.7974 83.8787 19.9742 83.9081 20.1465L85.2612 28.0256C85.2957 28.2244 85.2739 28.4287 85.1982 28.6158C85.1226 28.8027 84.9959 28.9648 84.8328 29.0835C84.6696 29.2022 84.4765 29.2727 84.2751 29.287C84.074 29.3014 83.8727 29.2591 83.6944 29.1651L76.6181 25.4446C76.4633 25.3632 76.2911 25.3207 76.1163 25.3207C75.9415 25.3207 75.7693 25.3632 75.6146 25.4446V25.4467Z" fill="#111111" fill-opacity="0.2"/>
</g>
</g>
<g clip-path="url(#clip5_1_183)">
<mask id="mask5_1_183" style="mask-type:luminance" maskUnits="userSpaceOnUse" x="60" y="0" width="32" height="31">
<path d="M91.0962 0.754639H60.8834V30.9674H91.0962V0.754639Z" fill="white"/>
</mask>
<g mask="url(#mask5_1_183)">
<path d="M75.6146 25.4467L68.5362 29.1672C68.3578 29.2607 68.1568 29.3025 67.956 29.2879C67.7551 29.2732 67.5624 29.2026 67.3996 29.0839C67.2368 28.9654 67.1104 28.8036 67.0347 28.6169C66.9591 28.4302 66.9372 28.2261 66.9716 28.0278L68.3247 20.1508C68.3543 19.9782 68.3416 19.801 68.2874 19.6344C68.2333 19.4678 68.1394 19.317 68.0139 19.1948L62.2864 13.6141C62.1421 13.4736 62.0401 13.2955 61.9918 13.1C61.9434 12.9045 61.9508 12.6993 62.013 12.5078C62.0752 12.3163 62.1898 12.1459 62.3437 12.0161C62.4977 11.8863 62.6849 11.8022 62.8842 11.7732L70.7956 10.623C70.9689 10.5981 71.1334 10.5315 71.2752 10.4289C71.4169 10.3262 71.5316 10.1907 71.6092 10.0339L75.1484 2.86477C75.2377 2.68465 75.3755 2.53304 75.5463 2.42705C75.7172 2.32106 75.9142 2.26489 76.1153 2.26489C76.3163 2.26489 76.5133 2.32106 76.6841 2.42705C76.855 2.53304 76.9928 2.68465 77.0821 2.86477L80.6234 10.0317C80.7009 10.1882 80.8152 10.3236 80.9566 10.4263C81.0979 10.5289 81.262 10.5956 81.4349 10.6208L89.3464 11.7711C89.5456 11.8 89.7329 11.8841 89.8867 12.014C90.0408 12.1438 90.1552 12.3141 90.2176 12.5056C90.2797 12.6972 90.2871 12.9023 90.2387 13.0978C90.1904 13.2933 90.0883 13.4714 89.9442 13.6119L84.2188 19.1926C84.0937 19.3146 84 19.4651 83.9458 19.6313C83.8917 19.7974 83.8787 19.9742 83.9081 20.1465L85.2612 28.0256C85.2957 28.2244 85.2739 28.4287 85.1982 28.6158C85.1226 28.8027 84.9959 28.9648 84.8328 29.0835C84.6696 29.2022 84.4765 29.2727 84.2751 29.287C84.074 29.3014 83.8727 29.2591 83.6944 29.1651L76.6181 25.4446C76.4633 25.3632 76.2911 25.3207 76.1163 25.3207C75.9415 25.3207 75.7693 25.3632 75.6146 25.4446V25.4467Z" fill="#FCBF02"/>
</g>
</g>
<g clip-path="url(#clip6_1_183)">
<mask id="mask6_1_183" style="mask-type:luminance" maskUnits="userSpaceOnUse" x="91" y="0" width="31" height="31">
<path d="M121.309 0.754639H91.0962V30.9674H121.309V0.754639Z" fill="white"/>
</mask>
<g mask="url(#mask6_1_183)">
<path d="M105.827 25.4467L98.749 29.1672C98.5707 29.2607 98.3697 29.3025 98.1688 29.2879C97.968 29.2732 97.7752 29.2026 97.6124 29.0839C97.4496 28.9654 97.3232 28.8036 97.2476 28.6169C97.172 28.4302 97.1501 28.2261 97.1844 28.0278L98.5375 20.1508C98.5672 19.9782 98.5544 19.801 98.5003 19.6344C98.4461 19.4678 98.3523 19.317 98.2268 19.1948L92.4993 13.6141C92.355 13.4736 92.2529 13.2955 92.2046 13.1C92.1563 12.9045 92.1637 12.6993 92.2259 12.5078C92.2881 12.3163 92.4026 12.1459 92.5566 12.0161C92.7105 11.8863 92.8978 11.8022 93.0971 11.7732L101.009 10.623C101.182 10.5981 101.346 10.5315 101.488 10.4289C101.63 10.3262 101.744 10.1907 101.822 10.0339L105.361 2.86477C105.451 2.68465 105.588 2.53304 105.759 2.42705C105.93 2.32106 106.127 2.26489 106.328 2.26489C106.529 2.26489 106.726 2.32106 106.897 2.42705C107.068 2.53304 107.206 2.68465 107.295 2.86477L110.836 10.0317C110.914 10.1882 111.028 10.3236 111.169 10.4263C111.311 10.5289 111.475 10.5956 111.648 10.6208L119.559 11.7711C119.758 11.8 119.946 11.8841 120.1 12.014C120.254 12.1438 120.368 12.3141 120.43 12.5056C120.493 12.6972 120.5 12.9023 120.452 13.0978C120.403 13.2933 120.301 13.4714 120.157 13.6119L114.432 19.1926C114.307 19.3146 114.213 19.4651 114.159 19.6313C114.105 19.7974 114.092 19.9742 114.121 20.1465L115.474 28.0256C115.509 28.2244 115.487 28.4287 115.411 28.6158C115.335 28.8027 115.209 28.9648 115.046 29.0835C114.883 29.2022 114.689 29.2727 114.488 29.287C114.287 29.3014 114.086 29.2591 113.907 29.1651L106.831 25.4446C106.676 25.3632 106.504 25.3207 106.329 25.3207C106.154 25.3207 105.982 25.3632 105.827 25.4446V25.4467Z" fill="#111111" fill-opacity="0.2"/>
</g>
</g>
<g clip-path="url(#clip7_1_183)">
<mask id="mask7_1_183" style="mask-type:luminance" maskUnits="userSpaceOnUse" x="91" y="0" width="31" height="31">
<path d="M121.309 0.754639H91.0962V30.9674H121.309V0.754639Z" fill="white"/>
</mask>
<g mask="url(#mask7_1_183)">
<path d="M105.827 25.4467L98.749 29.1672C98.5707 29.2607 98.3697 29.3025 98.1688 29.2879C97.968 29.2732 97.7752 29.2026 97.6124 29.0839C97.4496 28.9654 97.3232 28.8036 97.2476 28.6169C97.172 28.4302 97.1501 28.2261 97.1844 28.0278L98.5375 20.1508C98.5672 19.9782 98.5544 19.801 98.5003 19.6344C98.4461 19.4678 98.3523 19.317 98.2268 19.1948L92.4993 13.6141C92.355 13.4736 92.2529 13.2955 92.2046 13.1C92.1563 12.9045 92.1637 12.6993 92.2259 12.5078C92.2881 12.3163 92.4026 12.1459 92.5566 12.0161C92.7105 11.8863 92.8978 11.8022 93.0971 11.7732L101.009 10.623C101.182 10.5981 101.346 10.5315 101.488 10.4289C101.63 10.3262 101.744 10.1907 101.822 10.0339L105.361 2.86477C105.451 2.68465 105.588 2.53304 105.759 2.42705C105.93 2.32106 106.127 2.26489 106.328 2.26489C106.529 2.26489 106.726 2.32106 106.897 2.42705C107.068 2.53304 107.206 2.68465 107.295 2.86477L110.836 10.0317C110.914 10.1882 111.028 10.3236 111.169 10.4263C111.311 10.5289 111.475 10.5956 111.648 10.6208L119.559 11.7711C119.758 11.8 119.946 11.8841 120.1 12.014C120.254 12.1438 120.368 12.3141 120.43 12.5056C120.493 12.6972 120.5 12.9023 120.452 13.0978C120.403 13.2933 120.301 13.4714 120.157 13.6119L114.432 19.1926C114.307 19.3146 114.213 19.4651 114.159 19.6313C114.105 19.7974 114.092 19.9742 114.121 20.1465L115.474 28.0256C115.509 28.2244 115.487 28.4287 115.411 28.6158C115.335 28.8027 115.209 28.9648 115.046 29.0835C114.883 29.2022 114.689 29.2727 114.488 29.287C114.287 29.3014 114.086 29.2591 113.907 29.1651L106.831 25.4446C106.676 25.3632 106.504 25.3207 106.329 25.3207C106.154 25.3207 105.982 25.3632 105.827 25.4446V25.4467Z" fill="#FCBF02"/>
</g>
</g>
<g clip-path="url(#clip8_1_183)">
<mask id="mask8_1_183" style="mask-type:luminance" maskUnits="userSpaceOnUse" x="121" y="0" width="31" height="31">
<path d="M151.522 0.754639H121.309V30.9674H151.522V0.754639Z" fill="white"/>
</mask>
<g mask="url(#mask8_1_183)">
<path d="M136.04 25.4467L128.962 29.1672C128.784 29.2607 128.583 29.3025 128.382 29.2879C128.181 29.2732 127.988 29.2026 127.825 29.0839C127.662 28.9654 127.536 28.8036 127.46 28.6169C127.385 28.4302 127.363 28.2261 127.397 28.0278L128.75 20.1508C128.78 19.9782 128.767 19.801 128.713 19.6344C128.659 19.4678 128.565 19.317 128.44 19.1948L122.712 13.6141C122.568 13.4736 122.466 13.2955 122.417 13.1C122.369 12.9045 122.377 12.6993 122.439 12.5078C122.501 12.3163 122.615 12.1459 122.769 12.0161C122.923 11.8863 123.111 11.8022 123.31 11.7732L131.221 10.623C131.395 10.5981 131.559 10.5315 131.701 10.4289C131.843 10.3262 131.957 10.1907 132.035 10.0339L135.574 2.86477C135.663 2.68465 135.801 2.53304 135.972 2.42705C136.143 2.32106 136.34 2.26489 136.541 2.26489C136.742 2.26489 136.939 2.32106 137.11 2.42705C137.281 2.53304 137.419 2.68465 137.508 2.86477L141.049 10.0317C141.127 10.1882 141.241 10.3236 141.382 10.4263C141.524 10.5289 141.688 10.5956 141.861 10.6208L149.772 11.7711C149.971 11.8 150.159 11.8841 150.312 12.014C150.467 12.1438 150.581 12.3141 150.643 12.5056C150.705 12.6972 150.713 12.9023 150.664 13.0978C150.616 13.2933 150.514 13.4714 150.37 13.6119L144.645 19.1926C144.519 19.3146 144.426 19.4651 144.372 19.6313C144.317 19.7974 144.304 19.9742 144.334 20.1465L145.687 28.0256C145.721 28.2244 145.7 28.4287 145.624 28.6158C145.548 28.8027 145.422 28.9648 145.259 29.0835C145.095 29.2022 144.902 29.2727 144.701 29.287C144.5 29.3014 144.298 29.2591 144.12 29.1651L137.044 25.4446C136.889 25.3632 136.717 25.3207 136.542 25.3207C136.367 25.3207 136.195 25.3632 136.04 25.4446V25.4467Z" fill="#111111" fill-opacity="0.2"/>
</g>
</g>
<g clip-path="url(#clip9_1_183)">
<mask id="mask9_1_183" style="mask-type:luminance" maskUnits="userSpaceOnUse" x="121" y="0" width="31" height="31">
<path d="M151.522 0.754639H121.309V30.9674H151.522V0.754639Z" fill="white"/>
</mask>
<g mask="url(#mask9_1_183)">
<path d="M136.04 25.4467L128.962 29.1672C128.784 29.2607 128.583 29.3025 128.382 29.2879C128.181 29.2732 127.988 29.2026 127.825 29.0839C127.662 28.9654 127.536 28.8036 127.46 28.6169C127.385 28.4302 127.363 28.2261 127.397 28.0278L128.75 20.1508C128.78 19.9782 128.767 19.801 128.713 19.6344C128.659 19.4678 128.565 19.317 128.44 19.1948L122.712 13.6141C122.568 13.4736 122.466 13.2955 122.417 13.1C122.369 12.9045 122.377 12.6993 122.439 12.5078C122.501 12.3163 122.615 12.1459 122.769 12.0161C122.923 11.8863 123.111 11.8022 123.31 11.7732L131.221 10.623C131.395 10.5981 131.559 10.5315 131.701 10.4289C131.843 10.3262 131.957 10.1907 132.035 10.0339L135.574 2.86477C135.663 2.68465 135.801 2.53304 135.972 2.42705C136.143 2.32106 136.34 2.26489 136.541 2.26489C136.742 2.26489 136.939 2.32106 137.11 2.42705C137.281 2.53304 137.419 2.68465 137.508 2.86477L141.049 10.0317C141.127 10.1882 141.241 10.3236 141.382 10.4263C141.524 10.5289 141.688 10.5956 141.861 10.6208L149.772 11.7711C149.971 11.8 150.159 11.8841 150.312 12.014C150.467 12.1438 150.581 12.3141 150.643 12.5056C150.705 12.6972 150.713 12.9023 150.664 13.0978C150.616 13.2933 150.514 13.4714 150.37 13.6119L144.645 19.1926C144.519 19.3146 144.426 19.4651 144.372 19.6313C144.317 19.7974 144.304 19.9742 144.334 20.1465L145.687 28.0256C145.721 28.2244 145.7 28.4287 145.624 28.6158C145.548 28.8027 145.422 28.9648 145.259 29.0835C145.095 29.2022 144.902 29.2727 144.701 29.287C144.5 29.3014 144.298 29.2591 144.12 29.1651L137.044 25.4446C136.889 25.3632 136.717 25.3207 136.542 25.3207C136.367 25.3207 136.195 25.3632 136.04 25.4446V25.4467Z" fill="#FCBF02"/>
</g>
</g>
<defs>
<clipPath id="clip0_1_183">
<rect width="30.2128" height="30.2128" fill="white" transform="translate(0.457703 0.754639)"/>
</clipPath>
<clipPath id="clip1_1_183">
<rect width="30.2128" height="30.2128" fill="white" transform="translate(0.457703 0.754639)"/>
</clipPath>
<clipPath id="clip2_1_183">
<rect width="30.2128" height="30.2128" fill="white" transform="translate(30.6705 0.754639)"/>
</clipPath>
<clipPath id="clip3_1_183">
<rect width="30.2128" height="30.2128" fill="white" transform="translate(30.6705 0.754639)"/>
</clipPath>
<clipPath id="clip4_1_183">
<rect width="30.2128" height="30.2128" fill="white" transform="translate(60.8834 0.754639)"/>
</clipPath>
<clipPath id="clip5_1_183">
<rect width="30.2128" height="30.2128" fill="white" transform="translate(60.8834 0.754639)"/>
</clipPath>
<clipPath id="clip6_1_183">
<rect width="30.2128" height="30.2128" fill="white" transform="translate(91.0962 0.754639)"/>
</clipPath>
<clipPath id="clip7_1_183">
<rect width="30.2128" height="30.2128" fill="white" transform="translate(91.0962 0.754639)"/>
</clipPath>
<clipPath id="clip8_1_183">
<rect width="30.2128" height="30.2128" fill="white" transform="translate(121.309 0.754639)"/>
</clipPath>
<clipPath id="clip9_1_183">
<rect width="30.2128" height="30.2128" fill="white" transform="translate(121.309 0.754639)"/>
</clipPath>
</defs>
</svg>
